<svg xmlns="http://www.w3.org/2000/svg" viewBox="0 0 32 32" fill="none">
  <rect width="32" height="32" rx="6" fill="#2563eb"/>
  <path d="M8 6h16a2 2 0 0 1 2 2v16a2 2 0 0 1-2 2H8a2 2 0 0 1-2-2V8a2 2 0 0 1 2-2z" fill="white"/>
  <path d="M8 6h16a2 2 0 0 1 2 2v4H6V8a2 2 0 0 1 2-2z" fill="#1d4ed8"/>
  <path d="M10 14h8v1h-8v-1zm0 2h12v1H10v-1zm0 2h10v1H10v-1z" fill="#6b7280"/>
  <circle cx="22" cy="22" r="6" fill="#10b981"/>
  <path d="M19 22l2 2 4-4" stroke="white" stroke-width="2" stroke-linecap="round" stroke-linejoin="round" fill="none"/>
</svg>